<svg width="104" height="104" viewBox="0 0 104 104" fill="none" xmlns="http://www.w3.org/2000/svg">
<path d="M66.4399 57.1051C63.8997 56.5871 61.3348 56.2172 58.7576 55.9829L57.7958 49.3858C59.5838 48.313 60.7306 46.7963 61.3965 45.1686C62.5802 42.3078 62.3829 39.1387 61.9637 37.4864C61.6677 36.3642 61.6801 35.4147 61.7787 34.5146C61.8527 33.8734 61.6554 32.4923 62.0747 32.6279C64.1586 33.3061 64.7628 36.8082 65.2068 36.6479C65.4287 36.5615 65.4657 34.8105 64.4299 32.5786C64.4299 32.5663 64.4176 32.5539 64.4176 32.5416C63.8997 31.4935 63.2584 30.4823 62.6419 29.8411C62.309 29.4958 62.1117 29.0519 62.05 28.5834C61.5568 25.0197 60.077 22.7138 58.437 21.2464C55.8105 18.8788 52.7647 18.6322 52.7647 18.6322C52.0989 18.6199 52.0495 18.4596 52.0989 18.2623C52.1235 18.1636 52.1728 18.0526 52.1852 17.9417C52.4811 16.3263 51.174 16.1783 51.174 16.1783C51.4946 17.2141 51.1247 18.3116 50.9644 18.7308C50.9521 18.7555 50.9151 18.7678 50.8904 18.7555C50.8781 18.7555 50.8658 18.7308 50.8658 18.7185C50.9521 16.7209 48.9051 15.5371 48.9051 15.5371C48.1283 17.5224 49.7066 18.4966 49.6203 18.5212C47.6227 19.0145 41.3339 22.1589 43.4918 30.9879C43.6151 31.4935 43.6768 31.9497 43.7014 32.369C43.8247 35.9696 40.0268 33.6884 38.9416 38.3742C37.8565 43.06 40.0884 47.5978 45.4894 49.7311L44.9469 55.9829C42.4683 56.2172 40.0021 56.5625 37.5482 57.0557C32.8008 58.0545 28.1766 59.3986 23.5278 60.6934L30.6059 59.2137C32.9611 58.6958 35.304 58.1532 37.6715 57.7709C42.4067 56.9817 47.1911 56.5378 51.9879 56.5872C56.7847 56.5625 61.5691 57.0064 66.3042 57.8326C68.6718 58.2149 71.0147 58.7697 73.3822 59.263L80.4726 60.6934C75.8115 59.4233 71.1873 58.1039 66.4399 57.1051ZM45.5881 55.9336L46.106 49.953C47.6227 50.4833 49.349 50.8286 51.322 50.9519C53.7759 50.9519 55.6872 50.471 57.2039 49.7064L58.1164 55.9336C56.0818 55.761 54.0472 55.65 52.0125 55.6253C49.8546 55.6377 47.7213 55.7486 45.5881 55.9336Z" fill="white"/>
<path d="M38.6083 74.0476V82.5807H35.3776V76.9577H32.1345V82.5807H28.9038V67.1792H32.1345V74.0476H32.3442L35.3653 67.1792H38.5837L35.6366 74.0476H38.6083Z" fill="white"/>
<path d="M45.6619 67.1792V70.9648H42.4312V67.1792H45.6619ZM45.6619 71.9143V82.5807H42.4312V71.9143H45.6619Z" fill="white"/>
<path d="M54.8477 82.5807H51.9129L49.2617 67.1792H52.4061L53.7872 76.3535L55.4396 67.1792H57.6715L59.3238 76.3535L60.7049 67.1792H63.8493L61.1982 82.5807H58.2634L56.5617 73.0364L54.8477 82.5807Z" fill="white"/>
<path d="M67.562 67.1792H75.0346V70.1017H70.7558V73.0734H74.825V75.9466H70.8051V79.6582H75.1456V82.5807H67.562V67.1792Z" fill="white"/>
</svg>
