<svg width="185" height="196" viewBox="0 0 185 196" fill="none" xmlns="http://www.w3.org/2000/svg">
<path d="M65.7974 169.167L72.2066 169.02C72.2066 169.02 71.8685 170.457 71.501 172.495L66.5177 172.847C66.2237 171.117 65.9297 169.753 65.7974 169.167Z" fill="#F9AA4F"/>
<path d="M65.7974 169.167C65.915 169.753 66.209 171.132 66.503 172.847L66.1649 172.876C66.1649 172.862 66.1649 172.847 66.1502 172.832L65.7974 169.167Z" fill="#C9741F"/>
<path d="M63.46 187.686C58.7413 186.997 57.7711 187.598 57.7711 187.29C57.7711 186.967 58.2268 186.909 58.315 186.88C63.2689 185.457 66.5912 186.132 67.238 184.006C67.8995 181.806 67.1645 176.542 66.5029 172.832L71.4863 172.48C70.8542 175.912 70.1045 181.058 70.6337 183.83C71.0453 186.029 74.3528 185.443 78.1013 186.352C81.8939 187.261 79.0862 187.202 74.4998 187.701C71.5451 188.023 70.1045 191.748 69.7223 192.994C69.3401 194.24 68.6639 194.71 68.0906 192.994C67.5173 191.293 66.3265 188.082 63.46 187.686Z" fill="#F9AA4F"/>
<path d="M57.4183 187.95C56.6245 187.847 56.5363 186.982 57.3448 186.762C57.5653 186.704 61.6519 185.882 64.5478 185.311C66.1354 185.003 67.2379 183.536 67.0615 181.923L66.1648 172.876L66.5029 172.847C67.1644 176.542 67.8995 181.806 67.2379 184.02C66.5911 186.146 63.2689 185.457 58.315 186.894C58.2415 186.923 57.7711 186.967 57.7711 187.305C57.7711 187.613 58.7266 187.011 63.46 187.701C66.3265 188.111 67.5025 191.308 68.0905 193.038C68.6638 194.754 69.3401 194.284 69.7223 193.038C70.1045 191.792 71.5451 188.067 74.4998 187.745C79.0862 187.231 81.8939 187.305 78.1013 186.396C74.3528 185.487 71.0453 186.088 70.6337 183.874C70.1192 181.088 70.8542 175.956 71.4863 172.524C71.8538 170.486 72.1919 169.049 72.1919 169.049L70.8836 181.879C70.7072 183.507 71.8391 185.003 73.4855 185.281L80.3651 186.498C81.2618 186.674 81.2618 187.539 80.3357 187.701C74.0588 188.8 71.4422 189.372 70.2515 194.856C69.9869 196.117 67.5319 196 67.3408 194.739C66.5323 189.182 63.6511 188.727 57.4183 187.95Z" fill="#C9741F"/>
<path d="M117.63 169.167L124.039 169.02C124.039 169.02 123.701 170.457 123.333 172.495L118.35 172.847C118.056 171.117 117.762 169.753 117.63 169.167Z" fill="#F9AA4F"/>
<path d="M117.997 172.818L117.63 169.167C117.747 169.753 118.041 171.132 118.335 172.847L117.997 172.876C118.012 172.862 118.012 172.832 117.997 172.818Z" fill="#C9741F"/>
<path d="M115.292 187.686C110.574 186.997 109.604 187.598 109.604 187.29C109.604 186.967 110.059 186.909 110.147 186.88C115.101 185.457 118.424 186.132 119.07 184.006C119.732 181.806 118.997 176.542 118.335 172.832L123.319 172.48C122.687 175.912 121.937 181.058 122.466 183.83C122.878 186.029 126.185 185.443 129.934 186.352C133.726 187.261 130.919 187.202 126.332 187.701C123.377 188.023 121.937 191.748 121.555 192.994C121.172 194.24 120.496 194.71 119.923 192.994C119.35 191.293 118.159 188.082 115.292 187.686Z" fill="#F9AA4F"/>
<path d="M126.347 187.715C130.933 187.202 133.741 187.275 129.948 186.366C126.2 185.457 122.892 186.058 122.481 183.844C121.966 181.058 122.701 175.926 123.333 172.495C123.701 170.457 124.039 169.02 124.039 169.02L122.731 181.85C122.554 183.478 123.686 184.973 125.333 185.252L132.212 186.469C133.109 186.645 133.109 187.51 132.183 187.671C125.906 188.771 123.289 189.343 122.099 194.827C121.834 196.088 119.379 195.971 119.188 194.71C118.35 189.182 115.484 188.742 109.236 187.95C108.442 187.847 108.354 186.982 109.163 186.762C109.383 186.704 113.47 185.882 116.366 185.311C117.953 185.003 119.056 183.536 118.879 181.923L117.983 172.876L118.321 172.847C118.982 176.542 119.717 181.806 119.056 184.02C118.409 186.146 115.087 185.457 110.133 186.894C110.059 186.924 109.589 186.968 109.589 187.305C109.589 187.613 110.544 187.011 115.278 187.701C118.144 188.111 119.32 191.308 119.908 193.038C120.482 194.754 121.158 194.284 121.54 193.038C121.922 191.792 123.377 188.038 126.347 187.715Z" fill="#C9741F"/>
<path d="M161.451 121.542C164.861 142.905 162.244 167.759 129.757 171.22C123.451 171.894 113.382 170.736 107.31 169.035C94.7271 165.501 85.0398 167.833 81.8646 168.61C67.9437 171.982 58.271 171.176 51.5972 169.357C29.1356 163.272 24.7843 144.21 26.1809 126.234C26.2544 136.307 29.312 167.173 63.9159 167.055C82.3644 166.997 81.5412 158.58 94.1979 158.58C106.296 158.58 109.177 165.618 123.392 167.349C129.493 168.096 166.302 167.495 161.407 121.527H161.451V121.542Z" fill="#D4EF8B"/>
<path d="M150.661 85.6173C151.807 54.7811 136.255 37.5521 136.255 37.5521L136.328 37.4788C143.281 45.2208 149.058 56.4526 151.19 72.7139C152.44 82.3181 154.145 91.8784 156.658 101.277L151.91 100.72C151.925 100.735 150.411 92.4649 150.661 85.6173Z" fill="#D4EF8B"/>
<path d="M96.4471 17.361C96.3295 18.93 94.9036 20.6895 99.4312 20.235C99.7252 20.235 120.937 20.2936 136.328 37.4786L136.255 37.5519C136.255 37.5519 151.807 54.7809 150.661 85.6172C150.396 92.4648 151.91 100.735 151.91 100.735L156.658 101.292C156.923 102.26 157.173 103.242 157.452 104.21C158.893 109.269 160.422 115.266 161.436 121.556H161.407C166.302 167.525 129.493 168.111 123.392 167.378C109.177 165.662 106.296 158.609 94.198 158.609C81.5266 158.609 82.3498 167.026 63.9159 167.085C29.3267 167.202 26.2691 136.336 26.1809 126.263C26.7836 118.36 28.5182 110.676 30.2969 104.4C30.5615 103.477 30.8114 102.538 31.0613 101.614L35.8388 102.876C35.9123 102.876 37.5587 102.626 37.5587 82.3913C37.5587 49.3556 53.9199 34.7513 55.9632 33.0504L55.9044 32.9771C67.8114 22.801 81.2179 21.5546 84.9076 21.364C86.3776 22.7863 88.0828 22.6544 89.2735 22.2878C89.2735 22.2878 89.2882 22.2878 89.3029 22.2878C91.7431 22.0092 92.581 21.1441 93.0073 20.4256C93.8011 19.0913 94.0363 16.8625 93.9481 15.0443C93.8011 12.2437 90.8611 9.8096 90.8611 9.8096C90.8611 9.8096 96.991 9.73628 96.4471 17.361Z" fill="#E5F9B7"/>
<path d="M93.9481 15.0297C94.0363 16.8479 93.8011 19.062 93.0073 20.411C92.581 21.1441 91.7431 21.9946 89.3029 22.2732C90.1849 22.0092 90.7729 21.6133 90.7729 21.6133C90.8023 21.8333 91.1404 21.8333 91.1992 21.628C91.7725 19.6045 92.8897 14.3991 90.8464 9.80964C90.8611 9.79497 93.8011 12.229 93.9481 15.0297Z" fill="#D4EF8B"/>
<path d="M90.7728 21.5987C90.7728 21.5987 87.1566 21.3201 85.9953 18.6367C84.8487 15.9534 81.2178 14.8977 80.5269 12.4636C79.8948 10.2495 80.0565 8.02075 80.0565 8.02075C80.0565 8.02075 90.0966 12.3463 90.7728 21.5987Z" fill="#E5F9B7"/>
<path d="M89.2881 22.2732C88.0974 22.6397 86.3922 22.7717 84.9222 21.3494C85.3191 21.3347 77.5281 17.5224 80.0565 8.02075C80.0565 8.02075 79.8948 10.2495 80.5269 12.4636C81.2178 14.9124 84.8487 15.9681 85.9953 18.6367C87.1419 21.3201 90.7728 21.5987 90.7728 21.5987V21.6133C90.7728 21.6133 90.1848 22.0092 89.3028 22.2732H89.2881Z" fill="#D4EF8B"/>
<path d="M36.3973 74.6786C38.7935 53.4173 46.9373 40.6458 55.919 32.9624L55.9778 33.0357C53.9345 34.7366 37.5733 49.3409 37.5733 82.3766C37.5733 102.612 35.9269 102.861 35.8534 102.861L31.0759 101.6C33.4867 92.7287 35.3683 83.7696 36.3973 74.6786Z" fill="#D4EF8B"/>
<path d="M65.5475 92.6994C70.8003 92.6994 75.0585 91.7672 75.0585 90.6173C75.0585 89.4674 70.8003 88.5352 65.5475 88.5352C60.2948 88.5352 56.0366 89.4674 56.0366 90.6173C56.0366 91.7672 60.2948 92.6994 65.5475 92.6994Z" fill="#F1DEA7"/>
<path d="M121.996 92.6994C127.248 92.6994 131.507 91.7672 131.507 90.6173C131.507 89.4674 127.248 88.5352 121.996 88.5352C116.743 88.5352 112.485 89.4674 112.485 90.6173C112.485 91.7672 116.743 92.6994 121.996 92.6994Z" fill="#F1DEA7"/>
<path d="M61.7256 155.823C52.7879 155.501 51.1709 150.296 48.6572 146.762C46.2464 143.375 42.6449 143.389 41.3954 144.636C40.2341 145.779 40.8515 147.642 41.9687 149.416C44.6 153.624 48.8189 156.645 53.6405 157.847C57.7712 158.873 61.9167 158.771 64.3128 158.17C65.43 157.876 68.076 156.058 61.7256 155.823Z" fill="#F1FFCA"/>
<path d="M41.2696 142.255C42.0578 141.205 41.8168 139.696 40.7314 138.886C39.6459 138.075 38.127 138.27 37.3388 139.32C36.5506 140.37 36.7916 141.879 37.877 142.689C38.9625 143.5 40.4814 143.306 41.2696 142.255Z" fill="#F1FFCA"/>
<path d="M130.684 157.964C136.769 157.378 138.107 154.431 139.974 152.363C141.767 150.384 144.208 150.222 145.001 150.853C145.736 151.425 145.237 152.48 144.399 153.521C142.414 155.956 139.415 157.832 136.078 158.712C133.227 159.46 130.419 159.607 128.817 159.387C128.082 159.269 126.376 158.375 130.684 157.964Z" fill="#F1FFCA"/>
<path d="M82.4084 31.9361C75.6464 32.3174 74.1029 35.6458 71.9861 37.9333C69.9575 40.1181 67.2527 40.1914 66.3707 39.4289C65.5622 38.7251 66.1502 37.5374 67.091 36.3937C69.3401 33.681 72.7064 31.6868 76.4255 30.8364C79.6007 30.1032 82.7171 30.0739 84.4958 30.4112C85.319 30.5578 87.2007 31.6575 82.4084 31.9361Z" fill="#F1FFCA"/>
<path d="M101.107 80.4266C102.195 85.3387 100.004 91.9224 99.343 95.5735C96.9469 108.624 102.136 114.313 99.9457 114.958C93.9921 116.717 82.4232 86.1305 89.4645 77.1128C89.1852 77.8166 87.6417 81.8343 87.7005 86.5557C87.7446 92.6409 90.6993 104.225 95.712 109.518C96.5352 110.368 98.8432 110.852 98.211 103.242C97.6083 95.8667 101.519 87.4942 101.019 80.4559L101.107 80.4266Z" fill="#FF9100"/>
<path d="M101.107 80.4265L101.004 80.4558C101.504 87.494 97.579 95.8666 98.1964 103.242C98.8138 110.867 96.5206 110.383 95.6974 109.518C90.6847 104.224 87.73 92.6407 87.6859 86.5556C87.6418 81.8341 89.1706 77.8165 89.4499 77.1126C89.4352 77.098 89.4499 77.098 89.4646 77.0833C90.5524 75.705 92.0665 74.8399 94.1245 74.6786C95.5504 74.5613 96.9469 74.9425 98.0788 75.7197C99.7693 76.8487 100.695 78.5203 101.107 80.4265Z" fill="#FFAF22"/>
<path d="M90.6994 83.7403C92.3752 83.4471 92.4193 88.3738 92.1547 89.8841C91.4344 93.9898 92.9926 96.6438 92.5075 96.893C91.0963 97.6262 88.0975 84.1949 90.6994 83.7403Z" fill="#FFDE9C"/>
<path d="M92.4197 80.7912C92.6658 80.2713 92.4845 79.6705 92.0147 79.4492C91.5449 79.2279 90.9645 79.4699 90.7184 79.9898C90.4722 80.5097 90.6536 81.1106 91.1234 81.3319C91.5932 81.5532 92.1736 81.3111 92.4197 80.7912Z" fill="#FFDE9C"/>
<path d="M127.361 56.6577C127.053 55.47 126.964 54.2677 126.935 53.08C126.935 52.4788 126.935 51.8776 126.994 51.2911C127.053 50.6899 127.111 50.0887 127.258 49.4875C127.42 50.0887 127.508 50.6753 127.582 51.2764C127.655 51.8776 127.67 52.4641 127.699 53.0653C127.699 54.2677 127.655 55.47 127.361 56.6577Z" fill="#A7B521"/>
<path d="M132.051 57.0537C131.933 55.822 132.036 54.6343 132.183 53.4466C132.271 52.8601 132.374 52.2735 132.521 51.687C132.668 51.1005 132.83 50.5286 133.065 49.9568C133.138 50.5726 133.124 51.1738 133.094 51.775C133.08 52.3762 133.006 52.9627 132.918 53.5639C132.756 54.7369 132.506 55.91 132.051 57.0537Z" fill="#A7B521"/>
<path d="M122.202 57.0829C121.687 55.9685 121.393 54.8101 121.158 53.6371C121.055 53.0506 120.952 52.4641 120.908 51.8629C120.849 51.2617 120.82 50.6605 120.864 50.0447C121.128 50.6019 121.32 51.1737 121.496 51.7456C121.672 52.3174 121.805 52.904 121.922 53.4905C122.113 54.6635 122.275 55.8512 122.202 57.0829Z" fill="#A7B521"/>
<path d="M117.939 58.3733C117.218 57.3762 116.718 56.2912 116.263 55.1768C116.057 54.6196 115.836 54.0624 115.689 53.4759C115.528 52.904 115.381 52.3175 115.307 51.7017C115.675 52.2002 115.969 52.7281 116.248 53.2559C116.527 53.7838 116.763 54.341 116.983 54.8835C117.395 56.0126 117.777 57.1416 117.939 58.3733Z" fill="#A7B521"/>
<path d="M113.734 60.6168C112.823 59.781 112.103 58.8279 111.426 57.8455C111.103 57.3469 110.78 56.8337 110.5 56.3058C110.221 55.778 109.942 55.2354 109.751 54.6489C110.221 55.0595 110.603 55.514 110.985 55.9833C111.382 56.4378 111.72 56.9363 112.059 57.4202C112.705 58.4173 113.323 59.4584 113.734 60.6168Z" fill="#A7B521"/>
<path d="M104.708 77.1419L104.679 77.1566C105.943 80.4411 109.074 82.4646 112.896 83.579L112.926 83.5203C116.469 82.9191 119.026 79.708 118.732 76.0569C118.424 72.2005 115.057 69.2972 111.176 69.6052C107.296 69.8984 104.4 73.2856 104.708 77.1419Z" fill="#331919"/>
<path d="M104.591 70.9541C104.37 71.4673 104.194 71.9805 104.062 72.4791C103.944 73.8574 104.062 75.2211 104.444 76.5114C104.517 76.7313 104.576 76.9513 104.664 77.1712L104.694 77.1566C104.385 73.3002 107.281 69.9131 111.147 69.6198C115.028 69.3119 118.409 72.2151 118.703 76.0715C118.997 79.7226 116.439 82.9191 112.896 83.535L112.867 83.5936C114.44 84.0482 116.145 84.3414 117.865 84.4881V84.4294C121.099 82.8165 122.598 79.8985 122.598 76.0568C122.598 70.6462 118.188 66.2473 112.749 66.2473C109.148 66.2473 106.267 68.0802 104.591 70.9541C104.606 70.9395 104.606 70.9248 104.591 70.9541Z" fill="#A27B05"/>
<path d="M114.308 62.3909C117.071 62.3323 121.04 63.0507 124.421 66.6285C128.964 71.438 128.537 77.1125 127.596 80.6903C132.242 80.7929 135.079 79.5319 138.342 75.7195C142.238 71.1594 141.473 61.995 136.637 59.7662C126.068 54.8835 114.999 61.9217 114.308 62.3909Z" fill="white"/>
<path d="M110.809 62.8747C107.957 65.3234 105.752 68.1973 104.606 70.9393C106.281 68.0654 109.163 66.2325 112.764 66.2325C118.203 66.2325 122.613 70.6314 122.613 76.042C122.613 79.8984 121.114 82.8016 117.88 84.4146V84.4732C120.717 84.7372 123.642 84.6345 126.273 84.2533V84.2239C126.273 84.2239 127.023 82.8456 127.582 80.7048C128.523 77.1417 128.949 71.4525 124.407 66.643C121.04 63.0653 117.057 62.3468 114.293 62.4054C114.278 62.3908 114.278 62.4054 114.278 62.4054C112.338 62.4348 110.971 62.8307 110.809 62.8747C110.824 62.8747 110.809 62.8747 110.809 62.8747Z" fill="#E8DC43"/>
<path d="M140.929 60.7487C137.004 54.6195 128.199 52.4934 119.467 55.0594C111.382 57.4202 104.635 65.2942 104.062 72.4644C104.194 71.9658 104.37 71.4673 104.591 70.9394C104.606 70.9248 104.606 70.9101 104.606 70.9101C105.752 68.1681 107.957 65.3089 110.809 62.8455C110.809 62.8455 110.824 62.8455 110.838 62.8308C115.101 59.1651 120.82 56.4231 126.641 56.4671C137.24 56.5697 140.9 60.734 140.9 60.734L140.929 60.7487Z" fill="#BAD133"/>
<path d="M126.641 56.4964C120.834 56.4524 115.116 59.1797 110.838 62.8601C111 62.8161 112.367 62.4056 114.308 62.3909C114.308 62.3909 114.308 62.3762 114.322 62.3909C115.013 61.9363 126.082 54.8834 136.637 59.7662C141.473 61.995 142.238 71.1593 138.342 75.7195C135.079 79.5319 132.256 80.7929 127.596 80.6903C127.038 82.8311 126.288 84.2094 126.288 84.2094V84.2387C126.876 84.1654 127.449 84.0628 128.008 83.9455C142.502 81.0275 145.163 70.4409 141.988 62.7575C141.694 62.0536 141.341 61.3791 140.944 60.7486L140.915 60.778C140.9 60.7633 137.225 56.599 126.641 56.4964Z" fill="#DCE0BD"/>
<path d="M104.062 72.4644C103.944 73.8427 104.062 75.2063 104.444 76.4967C104.517 76.7166 104.576 76.9366 104.664 77.1565C105.929 80.441 109.06 82.4645 112.882 83.5789C114.455 84.0335 116.16 84.3267 117.88 84.4734C120.717 84.7373 123.642 84.6346 126.273 84.2534C126.861 84.1801 127.435 84.0775 127.993 83.9601C142.488 81.0422 145.148 70.4555 141.973 62.7721C141.679 62.0683 141.326 61.3938 140.929 60.7633C137.005 54.6342 128.199 52.5081 119.467 55.0741C111.397 57.4202 104.65 65.2942 104.062 72.4644Z" stroke="#BAD133" stroke-width="0.8496" stroke-miterlimit="10"/>
<path d="M110.677 76.2035C111.878 76.2035 112.852 75.2319 112.852 74.0334C112.852 72.8349 111.878 71.8633 110.677 71.8633C109.475 71.8633 108.501 72.8349 108.501 74.0334C108.501 75.2319 109.475 76.2035 110.677 76.2035Z" fill="white"/>
<path d="M113.778 78.3442C114.379 78.3442 114.866 77.8584 114.866 77.2591C114.866 76.6599 114.379 76.1741 113.778 76.1741C113.178 76.1741 112.691 76.6599 112.691 77.2591C112.691 77.8584 113.178 78.3442 113.778 78.3442Z" fill="white"/>
<path d="M61.167 56.6577C60.8877 55.4554 60.8289 54.2677 60.8289 53.0653C60.8436 52.4641 60.8583 51.8776 60.9465 51.2764C61.02 50.6753 61.0935 50.0887 61.2699 49.4875C61.4169 50.0887 61.4904 50.6899 61.5345 51.2911C61.5933 51.8923 61.5933 52.4935 61.5933 53.08C61.5639 54.2823 61.4757 55.47 61.167 56.6577Z" fill="#A7B521"/>
<path d="M56.4923 57.0537C56.0219 55.91 55.7867 54.7369 55.5956 53.5639C55.5221 52.9774 55.4486 52.3762 55.4192 51.775C55.3898 51.1738 55.3751 50.5726 55.4486 49.9568C55.6985 50.5286 55.8455 51.1005 55.9925 51.687C56.1542 52.2735 56.2424 52.8601 56.3306 53.4466C56.507 54.6343 56.6099 55.8366 56.4923 57.0537Z" fill="#A7B521"/>
<path d="M66.3266 57.0829C66.2531 55.8512 66.4148 54.6635 66.6206 53.4905C66.7382 52.904 66.8558 52.3174 67.0469 51.7456C67.2233 51.1737 67.3997 50.6019 67.679 50.0447C67.7231 50.6605 67.679 51.2617 67.6349 51.8629C67.5908 52.4641 67.4879 53.0506 67.385 53.6371C67.1351 54.7955 66.8411 55.9685 66.3266 57.0829Z" fill="#A7B521"/>
<path d="M70.5897 58.3733C70.7514 57.1563 71.1336 56.0126 71.5599 54.8982C71.7951 54.341 72.0156 53.7985 72.2949 53.2706C72.5742 52.7427 72.8682 52.2148 73.2357 51.7163C73.1622 52.3322 73.0152 52.9187 72.8535 53.4905C72.6918 54.077 72.486 54.6342 72.2802 55.1914C71.8245 56.2765 71.31 57.3616 70.5897 58.3733Z" fill="#A7B521"/>
<path d="M74.8086 60.6168C75.2202 59.4584 75.8376 58.432 76.4844 57.4202C76.8225 56.9217 77.1606 56.4378 77.5575 55.9833C77.9397 55.514 78.3366 55.0595 78.7923 54.6489C78.5865 55.2354 78.3219 55.778 78.0426 56.3058C77.7633 56.8484 77.4399 57.3469 77.1165 57.8455C76.4403 58.8279 75.72 59.781 74.8086 60.6168Z" fill="#A7B521"/>
<path d="M83.9666 77.1418L83.996 77.1565C82.7465 80.441 79.6007 82.4791 75.7787 83.5642L75.7493 83.4909C72.2066 82.8897 69.6488 79.6785 69.9428 76.0274C70.2368 72.1711 73.6178 69.2825 77.4839 69.5904C81.3794 69.913 84.2606 73.2854 83.9666 77.1418Z" fill="#331919"/>
<path d="M84.5988 72.4791C84.7164 73.8574 84.5988 75.2064 84.2166 76.5114C84.1431 76.7314 84.0843 76.9513 83.9961 77.1713L83.9667 77.1566C84.2754 73.3002 81.3795 69.9277 77.4987 69.6198C73.6326 69.3119 70.2516 72.2005 69.9576 76.0569C69.6636 79.7079 72.2214 82.9045 75.7641 83.5203L75.7788 83.579C74.2059 84.0335 72.5007 84.3268 70.7808 84.4734L70.7661 84.4001C67.5468 82.7872 66.0474 79.8839 66.0474 76.0422C66.0474 70.6169 70.4574 66.2327 75.8817 66.2327C79.4832 66.2327 82.3497 68.0509 84.0402 70.8955C84.2754 71.438 84.4518 71.9659 84.5988 72.4791Z" fill="#A27B05"/>
<path d="M74.3529 62.391C71.5893 62.3324 67.6203 63.0509 64.254 66.6286C59.7264 71.4381 60.138 77.1126 61.0788 80.6904C56.4336 80.7784 53.5818 79.5174 50.3331 75.705C46.4375 71.1595 47.2019 61.9951 52.0383 59.7663C62.6076 54.8982 73.662 61.9218 74.3529 62.391Z" fill="white"/>
<path d="M66.0621 76.042C66.0621 79.8837 67.5615 82.787 70.7808 84.3999L70.7955 84.4732C67.9584 84.7372 65.0331 84.6199 62.4018 84.2386V84.2093C62.4018 84.2093 61.6521 82.831 61.0935 80.6902C60.1527 77.1124 59.7264 71.4232 64.2687 66.6284C67.6203 63.0506 71.5893 62.3321 74.3529 62.3908C74.3676 62.3761 74.3676 62.3908 74.3676 62.3908C76.3227 62.4201 77.6751 62.816 77.8368 62.86C77.8515 62.8747 77.8662 62.8747 77.8662 62.8747C80.7033 65.3234 82.9083 68.1827 84.0549 70.91C82.3644 68.0654 79.4979 66.2472 75.8964 66.2472C70.4721 66.2325 66.0621 70.6167 66.0621 76.042Z" fill="#E8DC43"/>
<path d="M69.2078 55.0595C77.2781 57.4349 84.0254 65.2942 84.5987 72.4791C84.4517 71.9659 84.2753 71.438 84.0401 70.9102C82.8935 68.1828 80.6885 65.3236 77.8514 62.8748C77.8514 62.8748 77.8367 62.8748 77.822 62.8602C73.559 59.1944 67.8407 56.4525 62.0342 56.5111C51.4354 56.6138 47.7751 60.7634 47.7751 60.7634L47.7457 60.734C51.6853 54.6196 60.476 52.5081 69.2078 55.0595Z" fill="#BAD133"/>
<path d="M46.7021 62.7723C46.9961 62.0538 47.3636 61.3793 47.7605 60.7488L47.7899 60.7781C47.7899 60.7781 51.4502 56.6285 62.0489 56.5258C67.8554 56.4672 73.5738 59.2092 77.8368 62.8749C77.6604 62.8309 76.308 62.4203 74.3676 62.4057C74.3676 62.4057 74.3676 62.391 74.3529 62.4057C73.662 61.9511 62.6075 54.9129 52.0529 59.781C47.2313 62.0098 46.4522 71.1741 50.3477 75.7197C53.5964 79.532 56.4335 80.7931 61.0934 80.7051C61.652 82.8459 62.4017 84.2242 62.4017 84.2242V84.2535C61.8137 84.1802 61.2404 84.0776 60.6818 83.9603C46.1729 81.0277 43.5269 70.4557 46.7021 62.7723Z" fill="#DCE0BD"/>
<path d="M84.5988 72.4792C84.7164 73.8576 84.5988 75.2066 84.2166 76.5116C84.1431 76.7315 84.0843 76.9514 83.9961 77.1714C82.7466 80.4559 79.6008 82.494 75.7788 83.5791C74.2059 84.0337 72.5007 84.3269 70.7808 84.4736C67.9437 84.7375 65.0184 84.6202 62.3871 84.2389C61.7991 84.1656 61.2258 84.063 60.6672 83.9457C46.1582 81.0278 43.5122 70.4557 46.6874 62.7723C46.9814 62.0539 47.3489 61.3794 47.7458 60.7489C51.6707 54.6344 60.4614 52.5083 69.1932 55.0596C77.2782 57.435 84.0255 65.2944 84.5988 72.4792Z" stroke="#BAD133" stroke-width="0.8494" stroke-miterlimit="10"/>
<path d="M77.9838 76.1888C79.1772 76.1888 80.1447 75.2238 80.1447 74.0334C80.1447 72.843 79.1772 71.8779 77.9838 71.8779C76.7903 71.8779 75.8229 72.843 75.8229 74.0334C75.8229 75.2238 76.7903 76.1888 77.9838 76.1888Z" fill="white"/>
<path d="M74.794 78.3442C75.3948 78.3442 75.8818 77.8584 75.8818 77.2591C75.8818 76.6599 75.3948 76.1741 74.794 76.1741C74.1932 76.1741 73.7062 76.6599 73.7062 77.2591C73.7062 77.8584 74.1932 78.3442 74.794 78.3442Z" fill="white"/>
<path d="M18.1986 117.26C16.4199 119.107 14.2296 116.439 19.8156 108.594C22.9467 104.488 27.1068 100.265 32.0019 97.2594C40.2634 93.3444 31.605 114.796 28.7385 112.699C26.313 110.925 24.0492 115.339 22.4175 116.878C20.874 118.345 21.4767 113.858 18.1986 117.26Z" fill="#E5F9B7"/>
<path d="M17.7136 120.852C12.2598 127.407 11.7453 121.16 16.5963 113.257C17.5077 111.776 18.5809 110.207 19.8157 108.594C14.2296 116.439 16.4199 119.107 18.1987 117.26C21.4768 113.843 20.8741 118.345 22.4176 116.878C24.0493 115.339 26.3131 110.925 28.7386 112.7C31.6198 114.782 40.2634 93.3298 32.002 97.2594C33.6631 96.2477 34.8391 96.0571 35.6035 96.4676C38.4112 97.9193 35.9563 107.157 33.4573 112.216C31.6051 115.969 28.5328 117.656 27.8713 115.911C26.6659 112.744 23.9611 119.826 21.565 120.324C19.6981 120.691 20.8153 117.113 17.7136 120.852Z" fill="#D4EF8B"/>
<path d="M171.197 85.0747C172.902 83.1685 170.065 81.189 162.656 87.3328C158.805 90.7786 154.88 95.2361 152.263 100.324C148.97 108.829 169.741 98.5939 167.448 95.9106C165.493 93.6379 169.727 91.0425 171.153 89.2976C172.49 87.6554 168.036 88.5938 171.197 85.0747Z" fill="#E5F9B7"/>
<path d="M167.448 95.896C169.741 98.5793 148.97 108.814 152.263 100.31C151.366 102.04 151.264 103.213 151.719 103.946C153.38 106.629 162.436 103.477 167.301 100.603C170.903 98.4767 172.358 95.2948 170.565 94.7816C167.316 93.8285 174.181 90.588 174.49 88.1833C174.725 86.3064 171.241 87.6994 174.739 84.3122C180.869 78.3737 174.592 78.3444 167.051 83.7697C165.64 84.7815 164.141 85.9692 162.641 87.3182C170.05 81.1744 172.887 83.1539 171.182 85.0601C168.022 88.5792 172.461 87.6407 171.138 89.2683C169.727 91.0279 165.493 93.6232 167.448 95.896Z" fill="#D4EF8B"/>
<path d="M25.1077 48.2852C25.1077 48.2852 23.4319 49.2676 22.8439 49.5169C17.6694 51.731 14.1561 55.6754 12.4215 60.9394C10.7604 54.9276 6.76202 51.4231 1.6023 49.3849C1.176 49.2383 0 48.5638 0 48.5638C6.79142 47.772 11.5248 43.4611 12.4803 36.4815L12.6861 35.9097L12.8772 36.4815C14.2296 43.4904 18.8602 47.816 25.1077 48.2852Z" fill="#FFEE48"/>
<path d="M185 167.554C185 167.554 183.324 168.536 182.736 168.785C177.562 171 174.048 174.944 172.314 180.208C170.653 174.196 166.654 170.692 161.495 168.654C161.068 168.492 159.892 167.818 159.892 167.818C166.684 167.026 171.417 162.715 172.373 155.735L172.578 155.164L172.77 155.735C174.122 162.759 178.752 167.085 185 167.554Z" fill="#FFEE48"/>
<path d="M41.2042 19.9269C41.2042 19.9269 40.2193 20.4987 39.8812 20.6453C36.853 21.9357 34.8097 24.2524 33.7954 27.317C32.8252 23.8125 30.4879 21.7597 27.4744 20.572C27.2245 20.4694 26.5336 20.0882 26.5336 20.0882C30.5026 19.6336 33.2662 17.0969 33.8248 13.0206L33.9424 12.6833L34.0453 13.0206C34.8391 17.1262 37.5439 19.6483 41.2042 19.9269Z" fill="#FFEE48"/>
<path d="M178.885 19.7217C178.885 19.7217 176.224 21.276 175.283 21.6865C167.037 25.2203 161.465 31.4961 158.687 39.8686C156.056 30.3084 149.676 24.7218 141.459 21.4813C140.797 21.2173 138.915 20.1469 138.915 20.1469C149.735 18.8859 157.246 12.0236 158.775 0.909104L159.113 0L159.407 0.909104C161.568 12.0823 168.933 18.9592 178.885 19.7217Z" fill="#FFEE48"/>
</svg>
