<svg width="26" height="26" viewBox="0 0 26 26" fill="none" xmlns="http://www.w3.org/2000/svg">
<path fill-rule="evenodd" clip-rule="evenodd" d="M24 13C24 19.0751 19.0751 24 13 24C6.92487 24 2 19.0751 2 13C2 6.92487 6.92487 2 13 2C19.0751 2 24 6.92487 24 13ZM26 13C26 20.1797 20.1797 26 13 26C5.8203 26 0 20.1797 0 13C0 5.8203 5.8203 0 13 0C20.1797 0 26 5.8203 26 13ZM14.9458 9.32185L13.9511 6.26038C13.6517 5.33907 12.3483 5.33908 12.0489 6.26039L11.0542 9.32185C10.9203 9.73388 10.5364 10.0128 10.1032 10.0128H6.88414C5.91541 10.0128 5.51264 11.2525 6.29635 11.8219L8.90059 13.7139C9.25108 13.9686 9.39774 14.42 9.26386 14.832L8.26913 17.8934C7.96978 18.8148 9.02426 19.5809 9.80798 19.0115L12.4122 17.1194C12.7627 16.8647 13.2373 16.8647 13.5878 17.1194L16.192 19.0115C16.9757 19.5809 18.0302 18.8148 17.7309 17.8934L16.7361 14.832C16.6023 14.42 16.7489 13.9686 17.0994 13.7139L19.7036 11.8219C20.4874 11.2525 20.0846 10.0128 19.1159 10.0128H15.8968C15.4636 10.0128 15.0797 9.73388 14.9458 9.32185Z" fill="#FFC1C1"/>
</svg>
