<svg width="38" height="38" viewBox="0 0 38 38" fill="none" xmlns="http://www.w3.org/2000/svg">
<g clip-path="url(#clip0)">
<rect width="38" height="38" rx="19" fill="#2FC4B2"/>
<path d="M25.4457 42.8478C26.7822 43.0122 34.8415 42.8814 33.7696 32.7705H33.7729C34.5199 37.4685 33.9471 42.9351 26.8391 43.6968C25.4591 43.8445 23.2516 43.5894 21.9252 43.2169C19.1717 42.4384 17.0514 42.9518 16.3547 43.123C13.3065 43.8646 11.1895 43.6834 9.72903 43.2874C4.80837 41.9485 3.85371 37.7571 4.16188 33.8041C4.17863 36.0122 4.84856 42.8109 12.4255 42.784C16.4619 42.7706 16.281 40.9216 19.0579 40.9216C21.7041 40.9216 22.3338 42.472 25.4457 42.8478Z" fill="#D4EF8B"/>
<path d="M10.5094 13.464L10.496 13.4472C13.1422 11.068 16.1971 10.7861 17.0211 10.7424C17.346 11.0579 17.7246 11.0277 17.9858 10.9438C18.5184 10.88 18.696 10.6955 18.7897 10.5344C18.9639 10.2391 19.0175 9.74915 18.9941 9.35317C18.9639 8.73571 18.3174 8.20215 18.3174 8.20215C18.3174 8.20215 19.6607 8.18873 19.5434 9.86324C19.52 10.2122 19.2051 10.5982 20.2 10.4975C20.2636 10.4975 24.9062 10.5109 28.2794 14.2895L28.2593 14.3062C28.2593 14.3062 31.6659 18.0949 31.4146 24.8768C31.3577 26.3802 31.6659 27.9305 31.6659 27.9305L32.3559 26.7997C32.5167 27.5245 32.6976 28.246 32.9019 28.9608C33.2168 30.0715 33.5517 31.387 33.7728 32.7695H33.7695C34.8414 42.8804 26.7821 43.0112 25.4455 42.8468C22.3337 42.4676 21.704 40.9206 19.0577 40.9206C16.2808 40.9206 16.4617 42.773 12.4254 42.7831C4.84843 42.8099 4.17849 36.0145 4.16174 33.8031C4.29573 32.0648 4.67424 30.3802 5.06615 28.9977C5.26713 28.2863 5.45472 27.5681 5.6222 26.8466L6.27538 28.6621C6.29213 28.6621 6.6539 28.6084 6.6539 24.1553C6.65055 17.5009 9.6619 14.2458 10.5094 13.464Z" fill="#E5F9B7"/>
<path d="M32.3562 26.7969L31.6661 27.9278C31.6661 27.9278 31.358 26.3774 31.4149 24.874C31.6661 18.0954 28.2595 14.3068 28.2595 14.3068L28.2796 14.29C29.8004 15.9948 31.0632 18.4612 31.5288 22.0384C31.7365 23.6358 32.0011 25.2264 32.3562 26.7969Z" fill="#D4EF8B"/>
<path d="M18.9974 9.35359C19.0208 9.75293 18.9639 10.2395 18.7931 10.5348C18.6993 10.6959 18.5217 10.8805 17.9891 10.9442C18.1801 10.8838 18.3074 10.7966 18.3074 10.7966C18.3107 10.8402 18.3877 10.8469 18.3978 10.7999C18.5251 10.3536 18.7696 9.2093 18.3208 8.19922C18.3174 8.20257 18.9672 8.73614 18.9974 9.35359Z" fill="#D4EF8B"/>
<path d="M17.9862 10.9477C17.7249 11.0283 17.3464 11.0585 17.0215 10.7464C17.1119 10.743 15.4036 9.9041 15.9563 7.81348C15.9563 7.81348 15.9228 8.30341 16.0601 8.79C16.2108 9.32692 17.0047 9.55846 17.2593 10.1491C17.5105 10.7363 18.3077 10.8001 18.3077 10.8001V10.8034C18.3044 10.8001 18.1771 10.884 17.9862 10.9477Z" fill="#D4EF8B"/>
<path d="M18.3042 10.7967C18.3042 10.7967 17.5104 10.7363 17.2558 10.1457C17.0046 9.55511 16.2107 9.32692 16.06 8.79C15.9226 8.30341 15.9561 7.81348 15.9561 7.81348C15.9561 7.81348 18.1568 8.76315 18.3042 10.7967Z" fill="#E5F9B7"/>
<path d="M10.4964 13.4473L10.5098 13.464C9.66231 14.2459 6.65096 17.501 6.65096 24.1588C6.65096 28.6085 6.2892 28.6656 6.27245 28.6656L5.61926 26.8501C5.96093 25.4038 6.2289 23.944 6.39639 22.4675C6.90554 17.9272 8.59712 15.1486 10.4964 13.4473Z" fill="#D4EF8B"/>
<path d="M12.7772 26.4341C13.9279 26.4341 14.8607 26.2283 14.8607 25.9744C14.8607 25.7205 13.9279 25.5146 12.7772 25.5146C11.6265 25.5146 10.6937 25.7205 10.6937 25.9744C10.6937 26.2283 11.6265 26.4341 12.7772 26.4341Z" fill="#F1FFCA"/>
<path d="M25.1377 26.4341C26.2884 26.4341 27.2212 26.2283 27.2212 25.9744C27.2212 25.7205 26.2884 25.5146 25.1377 25.5146C23.987 25.5146 23.0542 25.7205 23.0542 25.9744C23.0542 26.2283 23.987 26.4341 25.1377 26.4341Z" fill="#F1FFCA"/>
<path d="M11.943 40.31C9.98678 40.2396 9.63171 39.0953 9.08237 38.3167C8.55312 37.5718 7.76595 37.5751 7.49127 37.8469C7.2367 38.0986 7.37068 38.508 7.61521 38.8973C8.19135 39.8201 9.11586 40.4879 10.171 40.7496C11.0754 40.9745 11.9832 40.9544 12.5057 40.8201C12.7503 40.7631 13.3297 40.3637 11.943 40.31Z" fill="#F1FFCA"/>
<path d="M7.46569 37.3288C7.63754 37.0988 7.58354 36.7674 7.34509 36.5886C7.10663 36.4098 6.77402 36.4513 6.60217 36.6812C6.43032 36.9112 6.48432 37.2426 6.72278 37.4214C6.96123 37.6003 7.29385 37.5588 7.46569 37.3288Z" fill="#F1FFCA"/>
<path d="M16.4685 13.0683C14.9879 13.1522 14.653 13.8837 14.1873 14.3871C13.7418 14.8703 13.149 14.8837 12.958 14.7159C12.7805 14.5616 12.9078 14.2998 13.1155 14.0481C13.6079 13.4508 14.3448 13.0112 15.1588 12.8233C15.8555 12.6622 16.5388 12.6589 16.924 12.7293C17.1083 12.7662 17.5203 13.0079 16.4685 13.0683Z" fill="#F1FFCA"/>
<path d="M16.9508 21.9854C16.9742 22.2907 16.9508 22.586 16.867 22.8713C16.8536 22.9216 16.8369 22.9686 16.8168 23.0156L16.8067 23.0122C16.8737 22.1632 16.2406 21.4216 15.3932 21.3578C14.5457 21.2907 13.8054 21.9249 13.7384 22.774C13.6748 23.576 14.2342 24.2807 15.0113 24.4149L15.0147 24.4283C14.6697 24.529 14.3012 24.5928 13.9227 24.6297L13.9193 24.6163C13.2125 24.2639 12.8843 23.623 12.8843 22.7773C12.8843 21.586 13.849 20.6162 15.0415 20.6162C15.8253 20.6162 16.455 21.0155 16.8235 21.6464C16.8771 21.7572 16.9173 21.8713 16.9508 21.9854Z" fill="#A27B05"/>
<path d="M16.8274 21.6393C16.5795 21.042 16.0972 20.4111 15.4741 19.8742C15.4741 19.8742 15.4708 19.8742 15.4708 19.8708C14.5362 19.0654 13.2834 18.4614 12.0139 18.4748C9.69594 18.4983 8.89202 19.4111 8.89202 19.4111L8.88867 19.4077C9.74954 18.0621 11.6756 17.5956 13.5849 18.1594C15.3535 18.6829 16.8307 20.4111 16.958 21.9883H16.9547C16.9178 21.8708 16.8776 21.7567 16.8274 21.6393Z" fill="#BAD133"/>
<path d="M16.8104 23.0122L16.8204 23.0156C16.5424 23.7371 15.8557 24.1834 15.0216 24.425L15.0183 24.4116C14.2412 24.2773 13.6818 23.5726 13.7454 22.7706C13.8124 21.9216 14.5527 21.2874 15.4001 21.3545C16.2443 21.4216 16.8774 22.1632 16.8104 23.0122Z" fill="#331919"/>
<path d="M11.7994 23.794C11.5917 23.0088 11.5012 21.7571 12.4927 20.7C13.2297 19.9148 14.1006 19.7537 14.7069 19.7671C14.7102 19.7638 14.7102 19.7671 14.7102 19.7671C15.1356 19.7705 15.4337 19.8611 15.4672 19.8711C15.4706 19.8745 15.4706 19.8745 15.4706 19.8745C16.0936 20.4148 16.576 21.0423 16.8239 21.6396C16.4587 21.0121 15.829 20.6094 15.0418 20.6094C13.8527 20.6094 12.8846 21.5759 12.8846 22.7705C12.8846 23.6128 13.2129 24.2537 13.9197 24.6094L13.923 24.6229C13.3 24.6799 12.6602 24.6564 12.0841 24.5725V24.5658C12.0874 24.5658 11.9233 24.2605 11.7994 23.794Z" fill="#E8DC43"/>
<path d="M15.4672 19.8711C15.4337 19.8611 15.1323 19.7738 14.7102 19.7671C14.7102 19.7671 14.7102 19.7638 14.7069 19.7671C14.5561 19.6664 12.1343 18.1195 9.82303 19.1899C8.76454 19.6799 8.59705 21.6967 9.45122 22.6967C10.1647 23.5356 10.7844 23.8141 11.8027 23.794C11.9266 24.2605 12.0908 24.5658 12.0908 24.5658V24.5725C11.9635 24.5558 11.8362 24.5323 11.7156 24.5088C8.54346 23.8678 7.96061 21.5423 8.654 19.851C8.71764 19.6933 8.79803 19.5456 8.88512 19.4047L8.88847 19.4081C8.88847 19.4081 9.69239 18.4953 12.0104 18.4718C13.2832 18.4617 14.536 19.0658 15.4672 19.8711Z" fill="#DCE0BD"/>
<path d="M14.707 19.7673C14.1007 19.7539 13.2331 19.915 12.4928 20.7002C11.5013 21.7573 11.5918 23.0056 11.7995 23.7942C10.7812 23.8144 10.1615 23.5358 9.448 22.6969C8.59718 21.6969 8.76466 19.6801 9.81981 19.1902C12.1344 18.1197 14.5562 19.6667 14.707 19.7673Z" fill="white"/>
<path d="M16.9511 21.9849C16.9745 22.2903 16.9511 22.5856 16.8673 22.8708C16.8539 22.9212 16.8372 22.9682 16.8171 23.0151C16.5391 23.7366 15.8524 24.1829 15.0183 24.4245C14.6733 24.5252 14.3048 24.589 13.9263 24.6259C13.3033 24.6829 12.6635 24.6594 12.0873 24.5756C11.9601 24.5588 11.8328 24.5353 11.7122 24.5118C8.54004 23.8708 7.9572 21.5453 8.65058 19.854C8.71422 19.6963 8.79461 19.5487 8.88171 19.4077C9.74257 18.0621 11.6686 17.5956 13.5779 18.1594C15.3466 18.6795 16.8238 20.4077 16.9511 21.9849Z" stroke="#BAD133" stroke-width="0.7617" stroke-miterlimit="10"/>
<path d="M15.5041 22.6426C15.678 22.6426 15.8189 22.5014 15.8189 22.3272C15.8189 22.1529 15.678 22.0117 15.5041 22.0117C15.3302 22.0117 15.1892 22.1529 15.1892 22.3272C15.1892 22.5014 15.3302 22.6426 15.5041 22.6426Z" fill="white"/>
<path d="M21.1982 21.9858C21.1747 22.2912 21.1982 22.5865 21.2819 22.8717C21.2953 22.9187 21.3121 22.9657 21.3288 23.0126L21.3389 23.0093C21.2719 22.1603 21.9083 21.4187 22.7524 21.3549C23.5999 21.2878 24.3402 21.922 24.4071 22.771C24.4674 23.573 23.908 24.2778 23.1343 24.412L23.1309 24.4254C23.4759 24.5261 23.8478 24.5898 24.2229 24.6267L24.2263 24.6133C24.933 24.261 25.258 23.62 25.258 22.7744C25.258 21.5831 24.2933 20.6133 23.1041 20.6133C22.3103 20.6133 21.6839 21.016 21.3154 21.6536C21.2685 21.7643 21.2283 21.875 21.1982 21.9858Z" fill="#A27B05"/>
<path d="M22.6832 19.8718C23.6177 19.0664 24.8705 18.4624 26.1434 18.4758C28.4614 18.4993 29.2653 19.412 29.2653 19.412L29.2686 19.4087C28.4078 18.063 26.4817 17.5966 24.5724 18.1604C22.8071 18.6838 21.3266 20.4087 21.2026 21.9893C21.2328 21.8785 21.273 21.7678 21.3199 21.6537C21.5711 21.0463 22.0535 20.4121 22.6832 19.8718Z" fill="#BAD133"/>
<path d="M21.339 23.0122L21.329 23.0156C21.607 23.7371 22.2937 24.1867 23.1311 24.425L23.1345 24.4116C23.9082 24.2773 24.4676 23.5726 24.4073 22.7706C24.3403 21.9216 23.6001 21.2874 22.7526 21.3545C21.9085 21.4216 21.272 22.1632 21.339 23.0122Z" fill="#331919"/>
<path d="M26.3499 23.794C26.5542 23.0088 26.648 21.7571 25.6565 20.7C24.9162 19.9148 24.052 19.7537 23.4423 19.7671C23.439 19.7638 23.439 19.7671 23.439 19.7671C23.0236 19.7705 22.7289 19.8577 22.682 19.8711C22.6786 19.8711 22.6786 19.8711 22.6786 19.8711C22.0522 20.4114 21.5665 21.0457 21.3153 21.6497C21.6838 21.0155 22.3102 20.6094 23.104 20.6094C24.2932 20.6094 25.2579 21.5759 25.2579 22.7705C25.2579 23.6128 24.933 24.2537 24.2262 24.6094L24.2228 24.6229C24.8459 24.6799 25.4856 24.6564 26.0618 24.5725V24.5658C26.0618 24.5658 26.2259 24.2605 26.3499 23.794Z" fill="#E8DC43"/>
<path d="M22.682 19.8718C22.7323 19.8584 23.0237 19.7745 23.439 19.7678C23.439 19.7678 23.439 19.7644 23.4424 19.7678C23.5931 19.6671 26.0149 18.1201 28.3262 19.1906C29.3847 19.6805 29.5522 21.6973 28.698 22.6973C27.9845 23.5363 27.3648 23.8148 26.3465 23.7947C26.2226 24.2611 26.0585 24.5665 26.0585 24.5665V24.5732C26.1858 24.5564 26.313 24.5329 26.4336 24.5094C29.6091 23.8685 30.1886 21.543 29.4952 19.8517C29.4316 19.6939 29.3512 19.5463 29.2641 19.4053V19.4121C29.2641 19.4121 28.4602 18.4993 26.1422 18.4758C24.8693 18.4624 23.6166 19.0664 22.682 19.8718Z" fill="#DCE0BD"/>
<path d="M23.4425 19.7673C24.0488 19.7539 24.913 19.915 25.6566 20.7002C26.6481 21.7573 26.5543 23.0056 26.35 23.7942C27.3683 23.8144 27.988 23.5358 28.7015 22.6969C29.5523 21.6969 29.3848 19.6801 28.3297 19.1902C26.0184 18.1197 23.5932 19.6667 23.4425 19.7673Z" fill="white"/>
<path d="M21.1982 21.9854C21.1747 22.2907 21.1982 22.586 21.2819 22.8713C21.2953 22.9182 21.3121 22.9652 21.3288 23.0122C21.6068 23.7337 22.2935 24.1834 23.1309 24.4216C23.4759 24.5223 23.8478 24.5861 24.2229 24.623C24.846 24.68 25.4857 24.6565 26.0619 24.5726C26.1892 24.5559 26.3165 24.5324 26.4371 24.5089C29.6125 23.8679 30.192 21.5424 29.4986 19.8511C29.435 19.6934 29.3546 19.5457 29.2675 19.4048C28.4067 18.0591 26.4806 17.5927 24.5713 18.1564C22.8027 18.6799 21.3255 20.4048 21.1982 21.9854Z" stroke="#BAD133" stroke-width="0.7617" stroke-miterlimit="10"/>
<path d="M22.6484 22.6426C22.8223 22.6426 22.9632 22.5014 22.9632 22.3272C22.9632 22.1529 22.8223 22.0117 22.6484 22.0117C22.4745 22.0117 22.3335 22.1529 22.3335 22.3272C22.3335 22.5014 22.4745 22.6426 22.6484 22.6426Z" fill="white"/>
<path d="M20.565 23.7334C20.8062 24.8173 20.3238 26.2636 20.1764 27.0656C19.6539 29.9348 20.7861 31.1865 20.3071 31.3274C19.0041 31.7167 16.4617 24.9649 18.0192 22.9951C17.969 23.1193 17.6173 24.0186 17.6273 25.0824C17.6374 26.418 18.2839 28.9683 19.3826 30.1294C19.5601 30.3207 20.0625 30.4247 19.9286 28.7502C19.7946 27.126 20.6521 25.2871 20.5449 23.7367L20.565 23.7334Z" fill="#FF9100"/>
<path d="M20.565 23.7334L20.5416 23.7368C20.6487 25.2871 19.7946 27.1261 19.9252 28.7503C20.0625 30.4248 19.5567 30.3174 19.3792 30.1295C18.2805 28.965 17.634 26.418 17.624 25.0824C17.6139 24.0187 17.9657 23.1193 18.0159 22.9952C18.0193 22.9952 18.0193 22.9918 18.0193 22.9918C18.2604 22.6965 18.5887 22.5052 19.0342 22.4717C19.3491 22.4482 19.6505 22.5321 19.8984 22.6965C20.2736 22.9448 20.4712 23.314 20.565 23.7334Z" fill="#FFAF22"/>
<path d="M18.2838 24.4617C18.6522 24.3979 18.6589 25.4818 18.602 25.814C18.4446 26.7167 18.7862 27.3006 18.679 27.3543C18.3709 27.5154 17.7143 24.5624 18.2838 24.4617Z" fill="#FFDE9C"/>
<path d="M18.6593 23.8122C18.713 23.6983 18.6738 23.5668 18.5718 23.5185C18.4697 23.4702 18.3435 23.5235 18.2898 23.6374C18.2361 23.7514 18.2752 23.8829 18.3773 23.9312C18.4793 23.9794 18.6056 23.9262 18.6593 23.8122Z" fill="#FFDE9C"/>
<path d="M5.39134 26.585C6.08138 26.6052 6.47664 28.6723 6.46324 29.9139C6.45319 30.8334 6.00768 31.4576 5.70956 31.1757C5.17027 30.6622 5.31095 32.3233 4.88554 32.6455C4.55058 32.9005 4.43334 32.0851 4.17541 33.122C3.71986 34.9375 3.02648 33.7495 3.23416 31.7227C3.27435 31.3435 3.33465 30.9273 3.42844 30.4945C3.07002 32.5817 3.76005 32.9005 3.93089 32.367C4.25581 31.3804 4.56398 32.3267 4.72811 31.8904C4.90229 31.4307 4.92909 30.3401 5.57893 30.4609C6.346 30.6052 6.01438 25.5313 4.75491 27.0917C4.98938 26.7293 5.20376 26.5817 5.39134 26.585Z" fill="#D4EF8B"/>
<path d="M4.75829 27.0885C6.01441 25.5281 6.34603 30.6019 5.5823 30.4576C4.93582 30.3402 4.90902 31.4274 4.73149 31.8872C4.56735 32.3234 4.25584 31.3738 3.93427 32.3637C3.76008 32.8973 3.0734 32.5751 3.43182 30.4912C3.65959 29.3771 4.07495 28.1455 4.75829 27.0885Z" fill="#E5F9B7"/>
<path d="M32.4902 26.585C31.8002 26.6052 31.4049 28.6723 31.4183 29.9139C31.4283 30.8334 31.8739 31.4576 32.1686 31.1757C32.7079 30.6622 32.5706 32.3233 32.9926 32.6455C33.3243 32.9005 33.4415 32.0851 33.7028 33.122C34.1583 34.9375 34.8551 33.7495 34.6474 31.7227C34.6072 31.3435 34.5469 30.9273 34.4531 30.4945C34.8082 32.5817 34.1215 32.9005 33.9473 32.367C33.6257 31.3804 33.3176 32.3267 33.1534 31.8904C32.9792 31.4307 32.9524 30.3401 32.3026 30.4609C31.5389 30.6052 31.8705 25.5313 33.1266 27.0917C32.8888 26.7293 32.6778 26.5817 32.4902 26.585Z" fill="#D4EF8B"/>
<path d="M33.1201 27.0885C31.864 25.5281 31.5357 30.6019 32.2961 30.4576C32.9459 30.3402 32.9727 31.4274 33.1469 31.8872C33.311 32.3234 33.6225 31.3738 33.9408 32.3637C34.1149 32.8973 34.8016 32.5751 34.4466 30.4912C34.2188 29.3771 33.8034 28.1455 33.1201 27.0885Z" fill="#E5F9B7"/>
</g>
<defs>
<clipPath id="clip0">
<rect width="38" height="38" rx="19" fill="white"/>
</clipPath>
</defs>
</svg>
